<svg id="Layer_1" data-name="Layer 1" xmlns="http://www.w3.org/2000/svg" xmlns:xlink="http://www.w3.org/1999/xlink" viewBox="0 0 1920 1080"><defs><style>.cls-1{fill:none;}.cls-2{fill:#f0a7ca;}.cls-3{fill:#ee3a6a;}.cls-4{fill:url(#New_Pattern);}</style><pattern id="New_Pattern" data-name="New Pattern" width="241.28" height="215.34" patternUnits="userSpaceOnUse" viewBox="0 0 241.28 215.34"><rect class="cls-1" width="241.28" height="215.34"/><path class="cls-2" d="M226.83,123.32c-.86,1.27-1.6,2.27-2.15,3a381.32,381.32,0,0,1-42.94,44.81,383,383,0,0,1-61.1,44.22,383,383,0,0,1-61.09-44.22A381.46,381.46,0,0,1,16.6,126.31c-.55-.72-1.28-1.72-2.15-3A83.21,83.21,0,0,1,.08,73.13,83.25,83.25,0,0,1,21.5,21.42a73.14,73.14,0,0,1,99.14-4,73.14,73.14,0,0,1,99.14,4A83.25,83.25,0,0,1,241.2,73.13,83.14,83.14,0,0,1,226.83,123.32Z"/></pattern></defs><rect class="cls-3" width="1920" height="1080"/><rect class="cls-4" width="1920" height="1080"/></svg>